<svg xmlns="http://www.w3.org/2000/svg" xmlns:xlink="http://www.w3.org/1999/xlink" width="500" zoomAndPan="magnify" viewBox="0 0 375 374.999991" height="500" preserveAspectRatio="xMidYMid meet" version="1.0"><defs><g/><clipPath id="cf9f18ebd9"><path d="M 7 117 L 134.25 117 L 134.25 208 L 7 208 Z M 7 117 " clip-rule="nonzero"/></clipPath><clipPath id="d632156d4f"><path d="M 19 88.019531 L 133 88.019531 L 133 129 L 19 129 Z M 19 88.019531 " clip-rule="nonzero"/></clipPath></defs><g clip-path="url(#cf9f18ebd9)"><path fill="#f4f6fc" d="M 134.214844 150.121094 C 113.679688 126.453125 79.894531 119.054688 51.578125 131.910156 C 22.699219 145.015625 6.015625 176.230469 11.140625 207.761719 C 0.09375 174.175781 16.429688 137.464844 48.179688 123.367188 C 79.015625 109.683594 116.035156 121.011719 134.214844 150.121094 Z M 134.214844 150.121094 " fill-opacity="1" fill-rule="nonzero"/></g><path fill="#f4f6fc" d="M 55.226562 136.554688 C 29.683594 151.898438 17.90625 182.402344 26.351562 209.636719 C 33.914062 234.070312 56.4375 251.6875 82.863281 253.59375 C 53.402344 256.429688 26.234375 238.515625 17.808594 211.894531 C 8.433594 182.320312 24.375 148.644531 55.226562 136.554688 Z M 55.226562 136.554688 " fill-opacity="1" fill-rule="nonzero"/><g clip-path="url(#d632156d4f)"><path fill="#f4f6fc" d="M 128.59375 122.671875 L 128.59375 110.644531 L 132.042969 109.683594 L 75.582031 88.019531 L 19.117188 109.683594 L 37.578125 115.058594 C 37.578125 119.335938 37.578125 123.632812 37.578125 127.914062 C 42.605469 124.511719 56.007812 116.402344 74.96875 116.183594 C 94.886719 115.953125 109.003906 124.546875 113.964844 127.914062 C 113.945312 124.578125 113.929688 121.261719 113.914062 117.925781 C 112.273438 117.097656 110.5625 116.269531 108.789062 115.457031 C 103.976562 113.28125 99.351562 111.589844 95.039062 110.246094 C 99.035156 110.480469 103.828125 111.175781 109.035156 112.882812 C 110.8125 113.464844 112.453125 114.09375 113.964844 114.773438 L 126.71875 111.191406 L 126.71875 122.6875 C 125.441406 123.085938 124.511719 124.28125 124.511719 125.691406 C 124.511719 127.429688 125.921875 128.839844 127.664062 128.839844 C 129.40625 128.839844 130.816406 127.429688 130.816406 125.691406 C 130.800781 124.261719 129.871094 123.070312 128.59375 122.671875 Z M 128.59375 122.671875 " fill-opacity="1" fill-rule="nonzero"/></g><g fill="#f4f6fc" fill-opacity="1"><g transform="translate(37.500002, 178.976208)"><g><path d="M 9.71875 0.25 C 8.539062 0.25 7.484375 0.0859375 6.546875 -0.234375 C 5.617188 -0.554688 4.804688 -1.003906 4.109375 -1.578125 C 3.421875 -2.148438 2.847656 -2.820312 2.390625 -3.59375 C 1.941406 -4.375 1.601562 -5.21875 1.375 -6.125 C 1.15625 -7.039062 1.046875 -7.988281 1.046875 -8.96875 C 1.046875 -9.957031 1.15625 -10.90625 1.375 -11.8125 C 1.601562 -12.726562 1.941406 -13.570312 2.390625 -14.34375 C 2.847656 -15.125 3.414062 -15.804688 4.09375 -16.390625 C 4.78125 -16.972656 5.59375 -17.425781 6.53125 -17.75 C 7.46875 -18.070312 8.523438 -18.234375 9.703125 -18.234375 C 10.890625 -18.234375 11.984375 -18.035156 12.984375 -17.640625 C 13.992188 -17.242188 14.882812 -16.660156 15.65625 -15.890625 C 16.4375 -15.128906 17.066406 -14.191406 17.546875 -13.078125 L 14.53125 -11.890625 C 14.3125 -12.671875 13.96875 -13.300781 13.5 -13.78125 C 13.03125 -14.257812 12.46875 -14.609375 11.8125 -14.828125 C 11.164062 -15.046875 10.453125 -15.15625 9.671875 -15.15625 C 8.722656 -15.15625 7.90625 -15 7.21875 -14.6875 C 6.539062 -14.375 5.976562 -13.9375 5.53125 -13.375 C 5.09375 -12.820312 4.765625 -12.175781 4.546875 -11.4375 C 4.335938 -10.707031 4.234375 -9.929688 4.234375 -9.109375 C 4.234375 -8.210938 4.335938 -7.378906 4.546875 -6.609375 C 4.765625 -5.847656 5.09375 -5.179688 5.53125 -4.609375 C 5.976562 -4.046875 6.546875 -3.601562 7.234375 -3.28125 C 7.929688 -2.96875 8.757812 -2.8125 9.71875 -2.8125 C 10.882812 -2.8125 11.863281 -3.0625 12.65625 -3.5625 C 13.457031 -4.070312 14.101562 -4.925781 14.59375 -6.125 L 17.578125 -4.90625 C 17.097656 -3.789062 16.46875 -2.847656 15.6875 -2.078125 C 14.914062 -1.316406 14.023438 -0.738281 13.015625 -0.34375 C 12.015625 0.0507812 10.914062 0.25 9.71875 0.25 Z M 9.71875 0.25 "/></g></g></g><g fill="#f4f6fc" fill-opacity="1"><g transform="translate(57.754235, 178.976208)"><g><path d="M 2.3125 0 L 2.3125 -17.9375 L 14.25 -17.9375 L 14.25 -14.984375 L 5.53125 -14.984375 L 5.53125 -10.453125 L 13.640625 -10.453125 L 13.640625 -7.484375 L 5.53125 -7.484375 L 5.53125 -3.046875 L 14.25 -3.046875 L 14.25 0 Z M 2.3125 0 "/></g></g></g><g fill="#f4f6fc" fill-opacity="1"><g transform="translate(75.635158, 178.976208)"><g><path d="M 2.3125 0 L 2.3125 -17.9375 L 5.515625 -17.9375 L 13.046875 -5.390625 L 13.046875 -17.9375 L 16.15625 -17.9375 L 16.15625 0 L 12.921875 0 L 5.40625 -12.578125 L 5.40625 0 Z M 2.3125 0 "/></g></g></g><g fill="#f4f6fc" fill-opacity="1"><g transform="translate(96.168604, 178.976208)"><g><path d="M 5.875 0 L 5.875 -15.0625 L 0.25 -15.0625 L 0.25 -17.9375 L 14.71875 -17.9375 L 14.71875 -15.0625 L 9.109375 -15.0625 L 9.109375 0 Z M 5.875 0 "/></g></g></g><g fill="#f4f6fc" fill-opacity="1"><g transform="translate(113.22458, 178.976208)"><g><path d="M 2.3125 0.03125 L 2.3125 -17.9375 L 8.109375 -17.9375 C 8.953125 -17.9375 9.742188 -17.816406 10.484375 -17.578125 C 11.234375 -17.347656 11.894531 -17.003906 12.46875 -16.546875 C 13.039062 -16.097656 13.492188 -15.546875 13.828125 -14.890625 C 14.160156 -14.242188 14.328125 -13.5 14.328125 -12.65625 C 14.328125 -11.90625 14.175781 -11.21875 13.875 -10.59375 C 13.570312 -9.976562 13.15625 -9.445312 12.625 -9 C 12.09375 -8.5625 11.488281 -8.222656 10.8125 -7.984375 L 15.8125 0.03125 L 12.109375 0.03125 L 7.6875 -7.671875 L 5.53125 -7.671875 L 5.53125 0.03125 Z M 5.5625 -10.296875 L 8.40625 -10.296875 C 9.257812 -10.335938 9.925781 -10.566406 10.40625 -10.984375 C 10.894531 -11.398438 11.140625 -11.941406 11.140625 -12.609375 C 11.140625 -13.347656 10.867188 -13.941406 10.328125 -14.390625 C 9.785156 -14.835938 9.054688 -15.0625 8.140625 -15.0625 L 5.5625 -15.0625 Z M 5.5625 -10.296875 "/></g></g></g><g fill="#f4f6fc" fill-opacity="1"><g transform="translate(131.397407, 178.976208)"><g><path d="M 9.703125 0.25 C 8.515625 0.25 7.453125 0.0859375 6.515625 -0.234375 C 5.578125 -0.554688 4.765625 -1.003906 4.078125 -1.578125 C 3.398438 -2.160156 2.832031 -2.835938 2.375 -3.609375 C 1.925781 -4.390625 1.59375 -5.234375 1.375 -6.140625 C 1.15625 -7.054688 1.046875 -8 1.046875 -8.96875 C 1.046875 -9.957031 1.15625 -10.90625 1.375 -11.8125 C 1.59375 -12.71875 1.925781 -13.554688 2.375 -14.328125 C 2.832031 -15.109375 3.398438 -15.785156 4.078125 -16.359375 C 4.765625 -16.941406 5.578125 -17.394531 6.515625 -17.71875 C 7.453125 -18.039062 8.515625 -18.203125 9.703125 -18.203125 C 10.890625 -18.203125 11.945312 -18.039062 12.875 -17.71875 C 13.8125 -17.394531 14.625 -16.941406 15.3125 -16.359375 C 16 -15.785156 16.566406 -15.109375 17.015625 -14.328125 C 17.472656 -13.554688 17.8125 -12.71875 18.03125 -11.8125 C 18.25 -10.90625 18.359375 -9.957031 18.359375 -8.96875 C 18.359375 -8 18.25 -7.054688 18.03125 -6.140625 C 17.8125 -5.234375 17.472656 -4.390625 17.015625 -3.609375 C 16.566406 -2.835938 16 -2.160156 15.3125 -1.578125 C 14.625 -1.003906 13.8125 -0.554688 12.875 -0.234375 C 11.945312 0.0859375 10.890625 0.25 9.703125 0.25 Z M 9.703125 -2.609375 C 10.660156 -2.609375 11.472656 -2.773438 12.140625 -3.109375 C 12.816406 -3.453125 13.359375 -3.921875 13.765625 -4.515625 C 14.179688 -5.109375 14.484375 -5.785156 14.671875 -6.546875 C 14.859375 -7.316406 14.953125 -8.125 14.953125 -8.96875 C 14.953125 -9.820312 14.859375 -10.628906 14.671875 -11.390625 C 14.484375 -12.148438 14.179688 -12.828125 13.765625 -13.421875 C 13.359375 -14.015625 12.816406 -14.484375 12.140625 -14.828125 C 11.472656 -15.171875 10.660156 -15.34375 9.703125 -15.34375 C 8.734375 -15.34375 7.914062 -15.171875 7.25 -14.828125 C 6.582031 -14.484375 6.039062 -14.015625 5.625 -13.421875 C 5.21875 -12.828125 4.914062 -12.148438 4.71875 -11.390625 C 4.53125 -10.628906 4.4375 -9.820312 4.4375 -8.96875 C 4.4375 -8.125 4.53125 -7.316406 4.71875 -6.546875 C 4.914062 -5.785156 5.21875 -5.109375 5.625 -4.515625 C 6.039062 -3.921875 6.582031 -3.453125 7.25 -3.109375 C 7.914062 -2.773438 8.734375 -2.609375 9.703125 -2.609375 Z M 9.703125 -2.609375 "/></g></g></g><g fill="#f4f6fc" fill-opacity="1"><g transform="translate(152.870023, 178.976208)"><g/></g></g><g fill="#f4f6fc" fill-opacity="1"><g transform="translate(161.194249, 178.976208)"><g><path d="M 2.3125 0 L 2.3125 -17.9375 L 14.25 -17.9375 L 14.25 -14.984375 L 5.53125 -14.984375 L 5.53125 -10.453125 L 13.640625 -10.453125 L 13.640625 -7.484375 L 5.53125 -7.484375 L 5.53125 -3.046875 L 14.25 -3.046875 L 14.25 0 Z M 2.3125 0 "/></g></g></g><g fill="#f4f6fc" fill-opacity="1"><g transform="translate(179.075172, 178.976208)"><g><path d="M 2.3125 0 L 2.3125 -17.9375 L 7.515625 -17.9375 C 9.554688 -17.9375 11.269531 -17.582031 12.65625 -16.875 C 14.039062 -16.164062 15.082031 -15.132812 15.78125 -13.78125 C 16.488281 -12.425781 16.84375 -10.78125 16.84375 -8.84375 C 16.84375 -6.976562 16.476562 -5.382812 15.75 -4.0625 C 15.03125 -2.75 13.976562 -1.742188 12.59375 -1.046875 C 11.207031 -0.347656 9.503906 0 7.484375 0 Z M 5.53125 -2.953125 L 7.171875 -2.953125 C 8.160156 -2.953125 9.050781 -3.054688 9.84375 -3.265625 C 10.644531 -3.472656 11.320312 -3.8125 11.875 -4.28125 C 12.4375 -4.75 12.867188 -5.367188 13.171875 -6.140625 C 13.472656 -6.910156 13.625 -7.851562 13.625 -8.96875 C 13.625 -10.394531 13.414062 -11.546875 13 -12.421875 C 12.59375 -13.304688 11.9375 -13.953125 11.03125 -14.359375 C 10.125 -14.773438 8.9375 -14.984375 7.46875 -14.984375 L 5.53125 -14.984375 Z M 5.53125 -2.953125 "/></g></g></g><g fill="#f4f6fc" fill-opacity="1"><g transform="translate(199.037501, 178.976208)"><g><path d="M 8.765625 0.25 C 7.148438 0.25 5.835938 -0.046875 4.828125 -0.640625 C 3.828125 -1.234375 3.085938 -2.070312 2.609375 -3.15625 C 2.140625 -4.25 1.90625 -5.53125 1.90625 -7 L 1.90625 -17.9375 L 5.109375 -17.9375 L 5.109375 -7.359375 C 5.109375 -6.398438 5.210938 -5.582031 5.421875 -4.90625 C 5.628906 -4.238281 6 -3.726562 6.53125 -3.375 C 7.0625 -3.03125 7.804688 -2.859375 8.765625 -2.859375 C 9.722656 -2.859375 10.460938 -3.03125 10.984375 -3.375 C 11.515625 -3.726562 11.882812 -4.238281 12.09375 -4.90625 C 12.300781 -5.582031 12.40625 -6.398438 12.40625 -7.359375 L 12.40625 -17.9375 L 15.625 -17.9375 L 15.625 -7.125 C 15.625 -5.613281 15.382812 -4.304688 14.90625 -3.203125 C 14.425781 -2.097656 13.679688 -1.242188 12.671875 -0.640625 C 11.671875 -0.046875 10.367188 0.25 8.765625 0.25 Z M 8.765625 0.25 "/></g></g></g><g fill="#f4f6fc" fill-opacity="1"><g transform="translate(218.631776, 178.976208)"><g><path d="M 9.71875 0.25 C 8.539062 0.25 7.484375 0.0859375 6.546875 -0.234375 C 5.617188 -0.554688 4.804688 -1.003906 4.109375 -1.578125 C 3.421875 -2.148438 2.847656 -2.820312 2.390625 -3.59375 C 1.941406 -4.375 1.601562 -5.21875 1.375 -6.125 C 1.15625 -7.039062 1.046875 -7.988281 1.046875 -8.96875 C 1.046875 -9.957031 1.15625 -10.90625 1.375 -11.8125 C 1.601562 -12.726562 1.941406 -13.570312 2.390625 -14.34375 C 2.847656 -15.125 3.414062 -15.804688 4.09375 -16.390625 C 4.78125 -16.972656 5.59375 -17.425781 6.53125 -17.75 C 7.46875 -18.070312 8.523438 -18.234375 9.703125 -18.234375 C 10.890625 -18.234375 11.984375 -18.035156 12.984375 -17.640625 C 13.992188 -17.242188 14.882812 -16.660156 15.65625 -15.890625 C 16.4375 -15.128906 17.066406 -14.191406 17.546875 -13.078125 L 14.53125 -11.890625 C 14.3125 -12.671875 13.96875 -13.300781 13.5 -13.78125 C 13.03125 -14.257812 12.46875 -14.609375 11.8125 -14.828125 C 11.164062 -15.046875 10.453125 -15.15625 9.671875 -15.15625 C 8.722656 -15.15625 7.90625 -15 7.21875 -14.6875 C 6.539062 -14.375 5.976562 -13.9375 5.53125 -13.375 C 5.09375 -12.820312 4.765625 -12.175781 4.546875 -11.4375 C 4.335938 -10.707031 4.234375 -9.929688 4.234375 -9.109375 C 4.234375 -8.210938 4.335938 -7.378906 4.546875 -6.609375 C 4.765625 -5.847656 5.09375 -5.179688 5.53125 -4.609375 C 5.976562 -4.046875 6.546875 -3.601562 7.234375 -3.28125 C 7.929688 -2.96875 8.757812 -2.8125 9.71875 -2.8125 C 10.882812 -2.8125 11.863281 -3.0625 12.65625 -3.5625 C 13.457031 -4.070312 14.101562 -4.925781 14.59375 -6.125 L 17.578125 -4.90625 C 17.097656 -3.789062 16.46875 -2.847656 15.6875 -2.078125 C 14.914062 -1.316406 14.023438 -0.738281 13.015625 -0.34375 C 12.015625 0.0507812 10.914062 0.25 9.71875 0.25 Z M 9.71875 0.25 "/></g></g></g><g fill="#f4f6fc" fill-opacity="1"><g transform="translate(238.88602, 178.976208)"><g><path d="M 0.15625 0 L 7.34375 -17.9375 L 9.75 -17.9375 L 16.890625 0 L 13.421875 0 L 12.03125 -3.890625 L 5.0625 -3.890625 L 3.671875 0 Z M 6.15625 -6.65625 L 10.9375 -6.65625 L 8.5625 -13.203125 Z M 6.15625 -6.65625 "/></g></g></g><g fill="#f4f6fc" fill-opacity="1"><g transform="translate(258.010699, 178.976208)"><g><path d="M 9.71875 0.25 C 8.539062 0.25 7.484375 0.0859375 6.546875 -0.234375 C 5.617188 -0.554688 4.804688 -1.003906 4.109375 -1.578125 C 3.421875 -2.148438 2.847656 -2.820312 2.390625 -3.59375 C 1.941406 -4.375 1.601562 -5.21875 1.375 -6.125 C 1.15625 -7.039062 1.046875 -7.988281 1.046875 -8.96875 C 1.046875 -9.957031 1.15625 -10.90625 1.375 -11.8125 C 1.601562 -12.726562 1.941406 -13.570312 2.390625 -14.34375 C 2.847656 -15.125 3.414062 -15.804688 4.09375 -16.390625 C 4.78125 -16.972656 5.59375 -17.425781 6.53125 -17.75 C 7.46875 -18.070312 8.523438 -18.234375 9.703125 -18.234375 C 10.890625 -18.234375 11.984375 -18.035156 12.984375 -17.640625 C 13.992188 -17.242188 14.882812 -16.660156 15.65625 -15.890625 C 16.4375 -15.128906 17.066406 -14.191406 17.546875 -13.078125 L 14.53125 -11.890625 C 14.3125 -12.671875 13.96875 -13.300781 13.5 -13.78125 C 13.03125 -14.257812 12.46875 -14.609375 11.8125 -14.828125 C 11.164062 -15.046875 10.453125 -15.15625 9.671875 -15.15625 C 8.722656 -15.15625 7.90625 -15 7.21875 -14.6875 C 6.539062 -14.375 5.976562 -13.9375 5.53125 -13.375 C 5.09375 -12.820312 4.765625 -12.175781 4.546875 -11.4375 C 4.335938 -10.707031 4.234375 -9.929688 4.234375 -9.109375 C 4.234375 -8.210938 4.335938 -7.378906 4.546875 -6.609375 C 4.765625 -5.847656 5.09375 -5.179688 5.53125 -4.609375 C 5.976562 -4.046875 6.546875 -3.601562 7.234375 -3.28125 C 7.929688 -2.96875 8.757812 -2.8125 9.71875 -2.8125 C 10.882812 -2.8125 11.863281 -3.0625 12.65625 -3.5625 C 13.457031 -4.070312 14.101562 -4.925781 14.59375 -6.125 L 17.578125 -4.90625 C 17.097656 -3.789062 16.46875 -2.847656 15.6875 -2.078125 C 14.914062 -1.316406 14.023438 -0.738281 13.015625 -0.34375 C 12.015625 0.0507812 10.914062 0.25 9.71875 0.25 Z M 9.71875 0.25 "/></g></g></g><g fill="#f4f6fc" fill-opacity="1"><g transform="translate(278.264932, 178.976208)"><g><path d="M 2.3125 0 L 2.3125 -17.9375 L 5.53125 -17.9375 L 5.53125 0 Z M 2.3125 0 "/></g></g></g><g fill="#f4f6fc" fill-opacity="1"><g transform="translate(288.188286, 178.976208)"><g><path d="M 9.703125 0.25 C 8.515625 0.25 7.453125 0.0859375 6.515625 -0.234375 C 5.578125 -0.554688 4.765625 -1.003906 4.078125 -1.578125 C 3.398438 -2.160156 2.832031 -2.835938 2.375 -3.609375 C 1.925781 -4.390625 1.59375 -5.234375 1.375 -6.140625 C 1.15625 -7.054688 1.046875 -8 1.046875 -8.96875 C 1.046875 -9.957031 1.15625 -10.90625 1.375 -11.8125 C 1.59375 -12.71875 1.925781 -13.554688 2.375 -14.328125 C 2.832031 -15.109375 3.398438 -15.785156 4.078125 -16.359375 C 4.765625 -16.941406 5.578125 -17.394531 6.515625 -17.71875 C 7.453125 -18.039062 8.515625 -18.203125 9.703125 -18.203125 C 10.890625 -18.203125 11.945312 -18.039062 12.875 -17.71875 C 13.8125 -17.394531 14.625 -16.941406 15.3125 -16.359375 C 16 -15.785156 16.566406 -15.109375 17.015625 -14.328125 C 17.472656 -13.554688 17.8125 -12.71875 18.03125 -11.8125 C 18.25 -10.90625 18.359375 -9.957031 18.359375 -8.96875 C 18.359375 -8 18.25 -7.054688 18.03125 -6.140625 C 17.8125 -5.234375 17.472656 -4.390625 17.015625 -3.609375 C 16.566406 -2.835938 16 -2.160156 15.3125 -1.578125 C 14.625 -1.003906 13.8125 -0.554688 12.875 -0.234375 C 11.945312 0.0859375 10.890625 0.25 9.703125 0.25 Z M 9.703125 -2.609375 C 10.660156 -2.609375 11.472656 -2.773438 12.140625 -3.109375 C 12.816406 -3.453125 13.359375 -3.921875 13.765625 -4.515625 C 14.179688 -5.109375 14.484375 -5.785156 14.671875 -6.546875 C 14.859375 -7.316406 14.953125 -8.125 14.953125 -8.96875 C 14.953125 -9.820312 14.859375 -10.628906 14.671875 -11.390625 C 14.484375 -12.148438 14.179688 -12.828125 13.765625 -13.421875 C 13.359375 -14.015625 12.816406 -14.484375 12.140625 -14.828125 C 11.472656 -15.171875 10.660156 -15.34375 9.703125 -15.34375 C 8.734375 -15.34375 7.914062 -15.171875 7.25 -14.828125 C 6.582031 -14.484375 6.039062 -14.015625 5.625 -13.421875 C 5.21875 -12.828125 4.914062 -12.148438 4.71875 -11.390625 C 4.53125 -10.628906 4.4375 -9.820312 4.4375 -8.96875 C 4.4375 -8.125 4.53125 -7.316406 4.71875 -6.546875 C 4.914062 -5.785156 5.21875 -5.109375 5.625 -4.515625 C 6.039062 -3.921875 6.582031 -3.453125 7.25 -3.109375 C 7.914062 -2.773438 8.734375 -2.609375 9.703125 -2.609375 Z M 9.703125 -2.609375 "/></g></g></g><g fill="#f4f6fc" fill-opacity="1"><g transform="translate(309.660903, 178.976208)"><g><path d="M 2.3125 0 L 2.3125 -17.9375 L 5.515625 -17.9375 L 13.046875 -5.390625 L 13.046875 -17.9375 L 16.15625 -17.9375 L 16.15625 0 L 12.921875 0 L 5.40625 -12.578125 L 5.40625 0 Z M 2.3125 0 "/></g></g></g><g fill="#f4f6fc" fill-opacity="1"><g transform="translate(330.194349, 178.976208)"><g><path d="M 0.15625 0 L 7.34375 -17.9375 L 9.75 -17.9375 L 16.890625 0 L 13.421875 0 L 12.03125 -3.890625 L 5.0625 -3.890625 L 3.671875 0 Z M 6.15625 -6.65625 L 10.9375 -6.65625 L 8.5625 -13.203125 Z M 6.15625 -6.65625 "/></g></g></g><g fill="#f4f6fc" fill-opacity="1"><g transform="translate(349.319027, 178.976208)"><g><path d="M 2.3125 0 L 2.3125 -17.9375 L 5.53125 -17.9375 L 5.53125 -3.046875 L 13.203125 -3.046875 L 13.203125 0 Z M 2.3125 0 "/></g></g></g><g fill="#f4f6fc" fill-opacity="1"><g transform="translate(37.500002, 208.973761)"><g><path d="M 10.46875 0.28125 C 9.207031 0.28125 8.070312 0.109375 7.0625 -0.234375 C 6.050781 -0.585938 5.175781 -1.070312 4.4375 -1.6875 C 3.695312 -2.3125 3.078125 -3.039062 2.578125 -3.875 C 2.085938 -4.707031 1.722656 -5.613281 1.484375 -6.59375 C 1.242188 -7.582031 1.125 -8.609375 1.125 -9.671875 C 1.125 -10.722656 1.238281 -11.738281 1.46875 -12.71875 C 1.707031 -13.707031 2.070312 -14.617188 2.5625 -15.453125 C 3.050781 -16.285156 3.664062 -17.015625 4.40625 -17.640625 C 5.144531 -18.273438 6.015625 -18.765625 7.015625 -19.109375 C 8.023438 -19.460938 9.171875 -19.640625 10.453125 -19.640625 C 11.710938 -19.640625 12.882812 -19.425781 13.96875 -19 C 15.050781 -18.570312 16.007812 -17.945312 16.84375 -17.125 C 17.675781 -16.300781 18.351562 -15.285156 18.875 -14.078125 L 15.796875 -12.796875 C 15.503906 -13.671875 15.085938 -14.390625 14.546875 -14.953125 C 14.015625 -15.515625 13.398438 -15.925781 12.703125 -16.1875 C 12.003906 -16.457031 11.242188 -16.59375 10.421875 -16.59375 C 9.398438 -16.59375 8.519531 -16.40625 7.78125 -16.03125 C 7.039062 -15.664062 6.429688 -15.164062 5.953125 -14.53125 C 5.484375 -13.90625 5.132812 -13.179688 4.90625 -12.359375 C 4.675781 -11.546875 4.5625 -10.691406 4.5625 -9.796875 C 4.5625 -8.847656 4.675781 -7.953125 4.90625 -7.109375 C 5.132812 -6.265625 5.488281 -5.519531 5.96875 -4.875 C 6.445312 -4.226562 7.054688 -3.722656 7.796875 -3.359375 C 8.546875 -3.003906 9.4375 -2.828125 10.46875 -2.828125 C 11.40625 -2.828125 12.253906 -3.019531 13.015625 -3.40625 C 13.785156 -3.800781 14.421875 -4.363281 14.921875 -5.09375 C 15.429688 -5.820312 15.75 -6.671875 15.875 -7.640625 L 11.484375 -7.640625 L 11.484375 -10.453125 L 19.234375 -10.453125 L 19.234375 0 L 16.484375 0 L 16.1875 -2.71875 C 15.84375 -2.113281 15.382812 -1.585938 14.8125 -1.140625 C 14.25 -0.691406 13.597656 -0.34375 12.859375 -0.09375 C 12.128906 0.15625 11.332031 0.28125 10.46875 0.28125 Z M 10.46875 0.28125 "/></g></g></g><g fill="#f4f6fc" fill-opacity="1"><g transform="translate(58.469731, 208.973761)"><g><path d="M 2.484375 0 L 2.484375 -19.3125 L 5.96875 -19.3125 L 5.96875 0 Z M 2.484375 0 "/></g></g></g><g fill="#f4f6fc" fill-opacity="1"><g transform="translate(66.917771, 208.973761)"><g><path d="M 8.015625 0.21875 C 7.160156 0.21875 6.320312 0.0976562 5.5 -0.140625 C 4.6875 -0.378906 3.941406 -0.734375 3.265625 -1.203125 C 2.585938 -1.671875 2.015625 -2.257812 1.546875 -2.96875 C 1.078125 -3.675781 0.765625 -4.503906 0.609375 -5.453125 L 4.0625 -6.328125 C 4.144531 -5.523438 4.375 -4.867188 4.75 -4.359375 C 5.125 -3.847656 5.597656 -3.46875 6.171875 -3.21875 C 6.753906 -2.976562 7.382812 -2.859375 8.0625 -2.859375 C 8.757812 -2.859375 9.34375 -2.96875 9.8125 -3.1875 C 10.28125 -3.40625 10.632812 -3.703125 10.875 -4.078125 C 11.125 -4.453125 11.25 -4.863281 11.25 -5.3125 C 11.25 -5.820312 11.113281 -6.253906 10.84375 -6.609375 C 10.582031 -6.960938 10.234375 -7.269531 9.796875 -7.53125 C 9.359375 -7.789062 8.859375 -8.03125 8.296875 -8.25 C 7.742188 -8.476562 7.171875 -8.707031 6.578125 -8.9375 C 5.984375 -9.164062 5.40625 -9.425781 4.84375 -9.71875 C 4.289062 -10.019531 3.789062 -10.375 3.34375 -10.78125 C 2.90625 -11.1875 2.554688 -11.671875 2.296875 -12.234375 C 2.035156 -12.804688 1.90625 -13.488281 1.90625 -14.28125 C 1.90625 -15.132812 2.0625 -15.890625 2.375 -16.546875 C 2.695312 -17.210938 3.140625 -17.769531 3.703125 -18.21875 C 4.265625 -18.675781 4.90625 -19.019531 5.625 -19.25 C 6.351562 -19.488281 7.125 -19.609375 7.9375 -19.609375 C 9.125 -19.609375 10.234375 -19.335938 11.265625 -18.796875 C 12.296875 -18.253906 13.144531 -17.394531 13.8125 -16.21875 L 10.921875 -14.453125 C 10.585938 -15.109375 10.144531 -15.613281 9.59375 -15.96875 C 9.050781 -16.332031 8.457031 -16.515625 7.8125 -16.515625 C 7.351562 -16.515625 6.9375 -16.425781 6.5625 -16.25 C 6.195312 -16.082031 5.90625 -15.84375 5.6875 -15.53125 C 5.476562 -15.21875 5.375 -14.859375 5.375 -14.453125 C 5.375 -13.992188 5.503906 -13.601562 5.765625 -13.28125 C 6.035156 -12.957031 6.390625 -12.675781 6.828125 -12.4375 C 7.273438 -12.195312 7.773438 -11.96875 8.328125 -11.75 C 8.878906 -11.539062 9.453125 -11.316406 10.046875 -11.078125 C 10.640625 -10.847656 11.210938 -10.582031 11.765625 -10.28125 C 12.328125 -9.976562 12.828125 -9.617188 13.265625 -9.203125 C 13.710938 -8.796875 14.066406 -8.300781 14.328125 -7.71875 C 14.585938 -7.132812 14.71875 -6.441406 14.71875 -5.640625 C 14.71875 -4.722656 14.539062 -3.898438 14.1875 -3.171875 C 13.84375 -2.453125 13.363281 -1.835938 12.75 -1.328125 C 12.132812 -0.828125 11.421875 -0.441406 10.609375 -0.171875 C 9.796875 0.0859375 8.929688 0.21875 8.015625 0.21875 Z M 8.015625 0.21875 "/></g></g></g><g fill="#f4f6fc" fill-opacity="1"><g transform="translate(82.460529, 208.973761)"><g><path d="M 2.484375 0 L 2.484375 -19.3125 L 5.9375 -19.3125 L 14.0625 -5.796875 L 14.0625 -19.3125 L 17.390625 -19.3125 L 17.390625 0 L 13.921875 0 L 5.828125 -13.546875 L 5.828125 0 Z M 2.484375 0 "/></g></g></g><g fill="#f4f6fc" fill-opacity="1"><g transform="translate(102.336661, 208.973761)"><g><path d="M 10.453125 0.28125 C 9.171875 0.28125 8.023438 0.109375 7.015625 -0.234375 C 6.015625 -0.585938 5.144531 -1.078125 4.40625 -1.703125 C 3.664062 -2.328125 3.050781 -3.054688 2.5625 -3.890625 C 2.070312 -4.734375 1.707031 -5.644531 1.46875 -6.625 C 1.238281 -7.601562 1.125 -8.617188 1.125 -9.671875 C 1.125 -10.722656 1.238281 -11.734375 1.46875 -12.703125 C 1.707031 -13.679688 2.070312 -14.585938 2.5625 -15.421875 C 3.050781 -16.265625 3.664062 -17 4.40625 -17.625 C 5.144531 -18.25 6.015625 -18.734375 7.015625 -19.078125 C 8.023438 -19.429688 9.171875 -19.609375 10.453125 -19.609375 C 11.722656 -19.609375 12.859375 -19.429688 13.859375 -19.078125 C 14.867188 -18.734375 15.742188 -18.25 16.484375 -17.625 C 17.222656 -17 17.835938 -16.265625 18.328125 -15.421875 C 18.816406 -14.585938 19.175781 -13.679688 19.40625 -12.703125 C 19.644531 -11.734375 19.765625 -10.722656 19.765625 -9.671875 C 19.765625 -8.617188 19.644531 -7.601562 19.40625 -6.625 C 19.175781 -5.644531 18.816406 -4.734375 18.328125 -3.890625 C 17.835938 -3.054688 17.222656 -2.328125 16.484375 -1.703125 C 15.742188 -1.078125 14.867188 -0.585938 13.859375 -0.234375 C 12.859375 0.109375 11.722656 0.28125 10.453125 0.28125 Z M 10.453125 -2.796875 C 11.484375 -2.796875 12.359375 -2.976562 13.078125 -3.34375 C 13.804688 -3.71875 14.390625 -4.222656 14.828125 -4.859375 C 15.265625 -5.503906 15.585938 -6.238281 15.796875 -7.0625 C 16.003906 -7.882812 16.109375 -8.753906 16.109375 -9.671875 C 16.109375 -10.578125 16.003906 -11.441406 15.796875 -12.265625 C 15.585938 -13.085938 15.265625 -13.816406 14.828125 -14.453125 C 14.390625 -15.085938 13.804688 -15.585938 13.078125 -15.953125 C 12.359375 -16.328125 11.484375 -16.515625 10.453125 -16.515625 C 9.410156 -16.515625 8.53125 -16.328125 7.8125 -15.953125 C 7.09375 -15.585938 6.507812 -15.085938 6.0625 -14.453125 C 5.625 -13.816406 5.300781 -13.085938 5.09375 -12.265625 C 4.882812 -11.441406 4.78125 -10.578125 4.78125 -9.671875 C 4.78125 -8.753906 4.882812 -7.882812 5.09375 -7.0625 C 5.300781 -6.238281 5.625 -5.503906 6.0625 -4.859375 C 6.507812 -4.222656 7.09375 -3.71875 7.8125 -3.34375 C 8.53125 -2.976562 9.410156 -2.796875 10.453125 -2.796875 Z M 10.453125 -2.796875 "/></g></g></g></svg>